<svg xmlns="http://www.w3.org/2000/svg" viewBox="0 0 64 64" id="facescan">
  <path d="M7.43 51.69L7.01 54.5A1.0018 1.0018 0 008 55.65H56a1.0018 1.0018 0 00.99-1.15l-.42-2.81a12.4076 12.4076 0 00-7.88-9.77l-9.52-3.6q.2742-.3819.5375-.79A.9991.9991 0 0038.8581 36H25.21a.9986.9986 0 00-.8508 1.5272q.2556.3971.52.7728l-9.57 3.62A12.4076 12.4076 0 007.43 51.69zM1 14a1 1 0 001-1V3A1.0006 1.0006 0 013 2H13a1 1 0 000-2H3A3.0033 3.0033 0 000 3V13A1 1 0 001 14zM13 62H3a1.0006 1.0006 0 01-1-1V51a1 1 0 00-2 0V61a3.0033 3.0033 0 003 3H13a1 1 0 000-2zM63 50a1 1 0 00-1 1V61a1.0006 1.0006 0 01-1 1H51a1 1 0 000 2H61a3.0033 3.0033 0 003-3V51A1 1 0 0063 50zM61 0H51a1 1 0 000 2H61a1.0006 1.0006 0 011 1V13a1 1 0 002 0V3A3.0033 3.0033 0 0061 0zM63 32H43.05a5.3883 5.3883 0 002.2-2 5.3281 5.3281 0 00.67-1.61 5.532 5.532 0 00-1.05-4.7l-.55-.68c.02-.37.03-.72.03-1.09 0-8.62-4.5-13.57-12.35-13.57a15.9848 15.9848 0 00-1.6.07c-6.83.67-10.75 5.59-10.75 13.5 0 .36.01.72.03 1.09l-.55.69a5.5052 5.5052 0 00-1.2 3.43A5.4793 5.4793 0 0018.75 30a5.2942 5.2942 0 002.19 2H1a1 1 0 000 2H63a1 1 0 000-2z" fill="#c5a14a" class="color000000 svgShape"></path>
</svg>
